<svg id="Layer_1" data-name="Layer 1" xmlns="http://www.w3.org/2000/svg" viewBox="0 0 512 512"><defs><style>.cls-1{fill:#ff5f6e;}.cls-2{fill:#141f38;}.cls-3{fill:#f9c882;}</style></defs><title>sim-card-filled</title><path class="cls-1" d="M452.92,124.72V452.92a52.51,52.51,0,0,1-52.51,52.51H111.59a52.51,52.51,0,0,1-52.51-52.51V59.08A52.51,52.51,0,0,1,111.59,6.56H334.77Z"/><path class="cls-2" d="M400.41,512H111.59a59.14,59.14,0,0,1-59.08-59.08V59.08A59.14,59.14,0,0,1,111.59,0h225.9l122,122V452.92A59.14,59.14,0,0,1,400.41,512ZM111.59,13.13A46,46,0,0,0,65.64,59.08V452.92a46,46,0,0,0,45.95,45.95H400.41a46,46,0,0,0,45.95-45.95V127.44L332.05,13.13Z"/><rect class="cls-3" x="137.85" y="190.36" width="236.31" height="236.31" rx="32.82" ry="32.82"/><path class="cls-2" d="M341.33,433.23H170.67a39.43,39.43,0,0,1-39.38-39.38V223.18a39.43,39.43,0,0,1,39.38-39.38H341.33a39.43,39.43,0,0,1,39.38,39.38V393.85A39.43,39.43,0,0,1,341.33,433.23ZM170.67,196.92a26.28,26.28,0,0,0-26.26,26.26V393.85a26.28,26.28,0,0,0,26.26,26.26H341.33a26.28,26.28,0,0,0,26.26-26.26V223.18a26.28,26.28,0,0,0-26.26-26.26Z"/><polygon class="cls-2" points="301.95 426.67 288.82 426.67 288.82 190.36 301.95 190.36 301.95 262.56 374.15 262.56 374.15 275.69 301.95 275.69 301.95 341.33 374.15 341.33 374.15 354.46 301.95 354.46 301.95 426.67"/><polygon class="cls-2" points="223.18 426.67 210.05 426.67 210.05 354.46 137.85 354.46 137.85 341.33 210.05 341.33 210.05 275.69 137.85 275.69 137.85 262.56 223.18 262.56 223.18 426.67"/></svg>